<?xml version="1.0" encoding="utf-8"?>
<!-- Generator: Adobe Illustrator 16.0.0, SVG Export Plug-In . SVG Version: 6.00 Build 0)  -->
<!DOCTYPE svg PUBLIC "-//W3C//DTD SVG 1.1//EN" "http://www.w3.org/Graphics/SVG/1.1/DTD/svg11.dtd">
<svg version="1.1" id="Layer_1" xmlns="http://www.w3.org/2000/svg" xmlns:xlink="http://www.w3.org/1999/xlink" x="0px" y="0px"
	 width="29.62px" height="21.833px" viewBox="0 0 29.62 21.833" enable-background="new 0 0 29.62 21.833" xml:space="preserve">
<path fill="#DB5233" d="M27.862,20.688c-0.97,0-1.759-0.789-1.759-1.758c0-0.97,0.789-1.759,1.759-1.759
	c0.969,0,1.758,0.789,1.758,1.759C29.62,19.899,28.831,20.688,27.862,20.688 M27.862,17.825c-0.609,0-1.105,0.496-1.105,1.105
	s0.496,1.104,1.105,1.104s1.104-0.495,1.104-1.104S28.472,17.825,27.862,17.825"/>
<path fill="#DB5233" d="M18.127,15.248c-0.495,0-0.898-0.402-0.898-0.898s0.403-0.899,0.898-0.899c0.496,0,0.899,0.403,0.899,0.899
	S18.623,15.248,18.127,15.248 M18.127,14.103c-0.136,0-0.245,0.11-0.245,0.246s0.109,0.246,0.245,0.246s0.246-0.11,0.246-0.246
	S18.263,14.103,18.127,14.103"/>
<path fill="#DB5233" d="M19.846,6.373c-0.496,0-0.9-0.403-0.9-0.899s0.404-0.899,0.9-0.899c0.495,0,0.898,0.403,0.898,0.899
	S20.341,6.373,19.846,6.373 M19.846,5.227c-0.136,0-0.246,0.11-0.246,0.246s0.11,0.246,0.246,0.246s0.245-0.11,0.245-0.246
	S19.981,5.227,19.846,5.227"/>
<path fill="#DB5233" d="M16.409,6.373c-0.495,0-0.898-0.403-0.898-0.899s0.403-0.899,0.898-0.899c0.496,0,0.899,0.403,0.899,0.899
	S16.905,6.373,16.409,6.373 M16.409,5.227c-0.136,0-0.245,0.11-0.245,0.246s0.109,0.246,0.245,0.246c0.137,0,0.246-0.11,0.246-0.246
	S16.546,5.227,16.409,5.227"/>
<path fill="#DB5233" d="M20.562,21.833c-1.522,0-2.761-1.279-2.761-2.851v-4.062c0-0.181,0.146-0.326,0.326-0.326
	c0.181,0,0.327,0.146,0.327,0.326v4.062c0,1.212,0.945,2.197,2.107,2.197c1.161,0,2.106-0.985,2.106-2.197v-4.688
	c0-1.571,1.238-2.85,2.761-2.85c1.521,0,2.76,1.278,2.76,2.85v3.245c0,0.181-0.146,0.326-0.326,0.326
	c-0.181,0-0.327-0.146-0.327-0.326v-3.245c0-1.211-0.945-2.197-2.106-2.197c-1.162,0-2.107,0.986-2.107,2.197v4.688
	C23.321,20.554,22.083,21.833,20.562,21.833"/>
<path fill="#DB5233" d="M17.7,14.297c-0.028,0-0.058-0.004-0.087-0.012c-2.809-0.781-3.762-4.407-4.08-6.498
	c-0.176-1.158,0.502-2.026,1.858-2.382l0.383-0.101c0.172-0.045,0.353,0.059,0.398,0.232c0.046,0.175-0.059,0.354-0.232,0.399
	l-0.384,0.101c-0.714,0.187-1.533,0.625-1.378,1.651c0.295,1.936,1.155,5.284,3.609,5.967c0.174,0.049,0.275,0.229,0.228,0.403
	C17.975,14.203,17.844,14.297,17.7,14.297"/>
<path fill="#DB5233" d="M18.555,14.297c-0.143,0-0.273-0.095-0.314-0.239c-0.048-0.174,0.053-0.354,0.228-0.402
	c2.453-0.683,3.313-4.032,3.608-5.967c0.155-1.026-0.664-1.465-1.378-1.651l-0.363-0.096c-0.175-0.046-0.278-0.225-0.233-0.398
	c0.047-0.175,0.228-0.278,0.399-0.233l0.363,0.096c1.355,0.355,2.033,1.224,1.857,2.382c-0.318,2.091-1.271,5.716-4.079,6.497
	C18.613,14.293,18.584,14.297,18.555,14.297"/>
<path fill="#DB5233" d="M8.387,8.617H6.369c-0.146,0-0.265-0.118-0.265-0.265V6.334c0-0.146,0.119-0.265,0.265-0.265h2.018
	c0.146,0,0.265,0.118,0.265,0.265v2.018C8.651,8.499,8.533,8.617,8.387,8.617 M6.634,8.087h1.488V6.6H6.634V8.087z"/>
<path fill="#DB5233" d="M8.387,8.617H6.369c-0.146,0-0.265-0.118-0.265-0.265V6.334c0-0.146,0.119-0.265,0.265-0.265h2.018
	c0.146,0,0.265,0.118,0.265,0.265v2.018C8.651,8.499,8.533,8.617,8.387,8.617 M6.634,8.087h1.488V6.6H6.634V8.087z"/>
<path fill="#DB5233" d="M4.68,8.617H2.662c-0.146,0-0.265-0.118-0.265-0.265V6.334c0-0.146,0.119-0.265,0.265-0.265H4.68
	c0.146,0,0.265,0.118,0.265,0.265v2.018C4.944,8.499,4.825,8.617,4.68,8.617 M2.927,8.087h1.488V6.6H2.927V8.087z"/>
<path fill="#DB5233" d="M8.387,12.059H6.369c-0.146,0-0.265-0.118-0.265-0.265V9.777c0-0.146,0.119-0.265,0.265-0.265h2.018
	c0.146,0,0.265,0.119,0.265,0.265v2.018C8.651,11.941,8.533,12.059,8.387,12.059 M6.634,11.53h1.488v-1.487H6.634V11.53z"/>
<path fill="#DB5233" d="M4.68,12.059H2.662c-0.146,0-0.265-0.118-0.265-0.265V9.777c0-0.146,0.119-0.265,0.265-0.265H4.68
	c0.146,0,0.265,0.119,0.265,0.265v2.018C4.944,11.941,4.825,12.059,4.68,12.059 M2.927,11.53h1.488v-1.487H2.927V11.53z"/>
<path fill="#DB5233" d="M12.094,8.617h-2.017c-0.146,0-0.266-0.118-0.266-0.265V6.334c0-0.146,0.119-0.265,0.266-0.265h2.017
	c0.146,0,0.265,0.118,0.265,0.265v2.018C12.358,8.499,12.24,8.617,12.094,8.617 M10.342,8.087h1.487V6.6h-1.487V8.087z"/>
<path fill="#DB5233" d="M11.085,12.066c-0.088,0-0.17-0.044-0.22-0.118l-1.009-1.512c-0.081-0.121-0.049-0.286,0.073-0.367
	s0.286-0.049,0.367,0.073l0.751,1.126l0.808-1.677c0.063-0.132,0.221-0.187,0.354-0.123c0.132,0.063,0.187,0.222,0.124,0.354
	l-1.009,2.094c-0.041,0.086-0.126,0.143-0.22,0.149C11.098,12.066,11.092,12.066,11.085,12.066"/>
<path fill="#DB5233" d="M7.378,3.26c-0.146,0-0.265-0.118-0.265-0.264v-2.34c0-0.146,0.118-0.265,0.265-0.265
	S7.644,0.51,7.644,0.657v2.34C7.644,3.142,7.524,3.26,7.378,3.26"/>
<path fill="#DB5233" d="M3.671,3.26c-0.146,0-0.265-0.118-0.265-0.264v-2.34c0-0.146,0.118-0.265,0.265-0.265
	S3.936,0.51,3.936,0.657v2.34C3.936,3.142,3.817,3.26,3.671,3.26"/>
<path fill="#DB5233" d="M11.086,3.26c-0.146,0-0.265-0.118-0.265-0.264v-2.34c0-0.146,0.118-0.265,0.265-0.265
	c0.146,0,0.265,0.118,0.265,0.265v2.34C11.351,3.142,11.231,3.26,11.086,3.26"/>
<rect x="1.071" y="5.04" fill="#DB5233" width="12.614" height="0.529"/>
<path fill="none" stroke="#DB5332" stroke-linecap="round" stroke-miterlimit="10" d="M13.854,10.786v1.187
	c0,0.481-0.391,0.871-0.871,0.871H1.773c-0.481,0-0.871-0.39-0.871-0.871V2.698c0-0.481,0.39-0.871,0.871-0.871h11.21
	c0.48,0,0.871,0.39,0.871,0.871v2.871"/>
</svg>
