<?xml version="1.0" encoding="utf-8"?>
<!-- Generator: Adobe Illustrator 16.0.0, SVG Export Plug-In . SVG Version: 6.00 Build 0)  -->
<!DOCTYPE svg PUBLIC "-//W3C//DTD SVG 1.1//EN" "http://www.w3.org/Graphics/SVG/1.1/DTD/svg11.dtd">
<svg version="1.1" id="Layer_1" xmlns="http://www.w3.org/2000/svg" xmlns:xlink="http://www.w3.org/1999/xlink" x="0px" y="0px"
	 width="19.75px" height="20.975px" viewBox="0 0 19.75 20.975" enable-background="new 0 0 19.75 20.975" xml:space="preserve">
<path fill="#DB5233" d="M19.288,17.002c-0.037-0.649-0.142-1.297-0.313-1.924c-0.413-1.526-2.441-2.479-3.053-2.733
	c-1.805-0.754-2.908-1.814-3.131-2.04l-0.405-1.218l0.9-1.866h0.103c0.376,0,0.681-0.305,0.681-0.681v-1.09
	c0-0.299-0.242-0.542-0.541-0.542L13.527,3.35c0-0.425-0.095-0.829-0.273-1.168c-0.35-0.665-1.265-1.763-3.339-1.766
	C8.053,0.428,7.119,1.31,6.662,2.048c-0.242,0.393-0.37,0.859-0.37,1.351v1.51C5.997,4.911,5.756,5.152,5.756,5.448V6.54
	c0,0.376,0.307,0.682,0.683,0.682h0.093l0.901,1.868l-0.392,1.216c-0.221,0.226-1.318,1.284-3.13,2.04
	C3.3,12.6,1.272,13.552,0.859,15.079c-0.171,0.627-0.275,1.274-0.313,1.926l-0.185,3.644l0.622,0.031l0.185-3.642
	c0.035-0.606,0.133-1.211,0.291-1.796c0.243-0.895,1.313-1.676,2.345-2.166c-0.091,0.499-0.152,1.235,0.018,2.072
	c-0.245,0.116-0.46,0.289-0.619,0.518c-0.241,0.346-0.332,0.765-0.259,1.178l0.221,1.277c-0.254,0.167-0.423,0.454-0.423,0.78
	c0,0.516,0.419,0.935,0.935,0.935c0.515,0,0.934-0.419,0.934-0.935c0-0.481-0.368-0.874-0.837-0.924l-0.215-1.242
	c-0.045-0.251,0.011-0.505,0.156-0.714s0.364-0.35,0.614-0.395c0.522-0.094,1.017,0.254,1.108,0.77l0.23,1.334
	c-0.271,0.163-0.457,0.458-0.457,0.799c0,0.515,0.42,0.934,0.935,0.934s0.934-0.419,0.934-0.934c0-0.469-0.349-0.854-0.799-0.921
	l-0.229-1.32c-0.142-0.786-0.848-1.323-1.624-1.29c-0.204-1.046-0.001-1.925,0.091-2.242c0.685-0.314,1.258-0.66,1.717-0.979
	l-0.396,2.012c-0.031,0.161,0.067,0.319,0.226,0.361l2.004,0.531l1.546,6.061c0.035,0.138,0.16,0.234,0.302,0.234
	c0.143,0,0.267-0.097,0.302-0.234l1.547-6.061l2.004-0.531c0.158-0.042,0.257-0.2,0.226-0.361l-0.396-2.012
	c0.323,0.226,0.701,0.463,1.138,0.695c0.115,0.388,0.37,1.479,0.108,2.787c-0.661,0.015-1.194,0.554-1.194,1.219
	c0,0.673,0.548,1.221,1.221,1.221c0.674,0,1.222-0.548,1.222-1.221c0-0.463-0.262-0.862-0.643-1.069
	c0.218-1.059,0.128-1.984,0.011-2.587c0.074,0.033,0.145,0.067,0.222,0.1c1.124,0.469,2.421,1.325,2.691,2.321
	c0.158,0.585,0.256,1.189,0.291,1.794l0.185,3.644l0.622-0.031L19.288,17.002z M3.987,18.901c0,0.172-0.139,0.312-0.311,0.312
	s-0.312-0.14-0.312-0.312s0.14-0.311,0.312-0.311S3.987,18.729,3.987,18.901 M6.456,18.529c0,0.171-0.139,0.311-0.311,0.311
	s-0.312-0.14-0.312-0.311c0-0.172,0.14-0.312,0.312-0.312S6.456,18.357,6.456,18.529 M14.872,17.075
	c-0.329,0-0.598-0.269-0.598-0.598c0-0.33,0.269-0.599,0.598-0.599c0.331,0,0.599,0.269,0.599,0.599
	C15.47,16.806,15.203,17.075,14.872,17.075 M11.714,12.361l-1.798,1.826L8.12,12.361L7.64,10.48l0.227-0.706
	c0.505,0.588,1.25,0.947,2.042,0.947c0.795,0,1.542-0.362,2.047-0.954l0.238,0.715L11.714,12.361z M7.192,2.375
	c0.374-0.604,1.15-1.326,2.727-1.336H9.95c1.65,0,2.408,0.778,2.753,1.434c0.129,0.244,0.197,0.541,0.2,0.858
	c-0.153,0.047-0.285,0.043-0.398-0.013C12.19,3.164,12.027,2.647,11.99,2.46c-0.025-0.13-0.131-0.229-0.261-0.248
	c-0.132-0.021-0.261,0.047-0.321,0.164c-0.481,0.923-1.126,1.511-1.917,1.746C8.407,4.446,7.313,4.026,6.915,3.843V3.399
	C6.915,3.024,7.01,2.669,7.192,2.375 M6.727,6.598H6.439c-0.032,0-0.06-0.026-0.06-0.059V5.532h0.224
	c0.172,0,0.312-0.14,0.312-0.312V4.522c0.399,0.157,1.02,0.344,1.723,0.344c0.329,0,0.676-0.041,1.025-0.145
	c0.778-0.23,1.434-0.728,1.952-1.481c0.131,0.244,0.326,0.495,0.611,0.637c0.157,0.077,0.386,0.139,0.678,0.091V5.22
	c0,0.172,0.14,0.312,0.312,0.312h0.231v1.009c0,0.032-0.025,0.058-0.058,0.058h-0.298c-0.119,0-0.229,0.068-0.28,0.176L11.77,8.93
	c-0.343,0.709-1.073,1.168-1.861,1.168S8.391,9.639,8.048,8.93L7.007,6.774C6.956,6.667,6.846,6.598,6.727,6.598 M6.506,13.622
	l0.475-2.416c0.059-0.049,0.116-0.098,0.165-0.142l0.746,2.926L6.506,13.622z M9.917,19.404L8.425,13.56l1.27,1.29
	c0.058,0.06,0.139,0.093,0.222,0.093s0.164-0.033,0.222-0.093l1.27-1.29L9.917,19.404z M13.328,13.622l-1.387,0.367l0.747-2.925
	c0.049,0.044,0.106,0.093,0.164,0.142L13.328,13.622z"/>
</svg>
